<svg xmlns="http://www.w3.org/2000/svg" width="170" height="48" viewBox="0 0 170 48">
  <g fill="#FFF" fill-rule="evenodd">
    <path d="M126.255413 14.9403303L123.006606 20.568C126.401835 22.4915229 128.698349 26.1377615 128.698349 30.3108991 128.698349 36.4808807 123.678165 41.5005138 117.508624 41.5005138 115.433394 41.5005138 113.488073 40.9317798 111.820183 39.943156L108.571376 45.5703853C111.195963 47.1134312 114.249908 47.9998899 117.508624 47.9998899 127.262752 47.9998899 135.198165 40.0645872 135.198165 30.3108991 135.198165 23.7367706 131.592661 17.9893211 126.255413 14.9403303M160.37945 14.9403303L157.130642 20.568C160.525872 22.4915229 162.822385 26.1377615 162.822385 30.3108991 162.822385 36.4808807 157.802202 41.5005138 151.632661 41.5005138 149.55633 41.5005138 147.61211 40.9317798 145.94422 39.943156L142.695413 45.5703853C145.318899 47.1134312 148.373945 47.9998899 151.632661 47.9998899 161.385688 47.9998899 169.321101 40.0645872 169.321101 30.3108991 169.321101 23.7367706 165.715596 17.9893211 160.37945 14.9403303M84.5440734 41.5409174C78.9821284 41.5409174 74.4733211 37.0321101 74.4733211 31.4701651 74.4733211 25.9081101 78.9821284 21.3993028 84.5440734 21.3993028 90.1061284 21.3993028 94.6150459 25.9081101 94.6150459 31.4701651 94.6150459 37.0321101 90.1061284 41.5409174 84.5440734 41.5409174zM84.5440734 14.9403303C75.4149358 14.9403303 68.0143486 22.3410275 68.0143486 31.4701651 68.0143486 40.5993028 75.4149358 47.9998899 84.5440734 47.9998899 93.6733211 47.9998899 101.073908 40.5993028 101.073908 31.4701651 101.073908 22.3410275 93.6733211 14.9403303 84.5440734 14.9403303zM60.5168807 22.0001835L63.7780183 16.3517064C61.7324037 15.4447706 59.4685872 14.9403303 57.0868624 14.9403303 53.2962936 14.9403303 49.8044037 16.2171743 47.0158899 18.3628624L47.0158899 14.9405505 40.5570275 14.9403303 40.5570275 47.9998899 47.0158899 47.9998899 47.0158899 31.4702752C47.0158899 25.9082202 51.5248073 21.3993028 57.0868624 21.3993028 58.2915963 21.3993028 59.4462385 21.6121101 60.5168807 22.0001835M20.3394495 28.3474128L16.7336147 34.5929174 26.1062752 34.5929174C24.792 38.6261284 21.0015413 41.5410275 16.5297248 41.5410275 10.9677798 41.5410275 6.45886239 37.0321101 6.45886239 31.4701651 6.45886239 25.9082202 10.9677798 21.3993028 16.5297248 21.3993028 17.8206606 21.3993028 19.053578 21.6444771 20.187633 22.0872661L23.4411743 16.4518899C21.338422 15.4819817 18.9975413 14.9403303 16.5297248 14.9403303 7.40069725 14.9403303 0 22.3410275 0 31.4701651 0 40.5993028 7.40069725 47.9998899 16.5297248 47.9998899 25.6588624 47.9998899 33.0595596 40.5993028 33.0595596 31.4701651 33.0595596 30.4024954 32.9570642 29.3588257 32.7637431 28.3474128L20.3394495 28.3474128"/>
    <polyline points="150.174 14.94 158.659 .074 151.18 .074 142.695 14.94 150.174 14.94"/>
    <polyline points="108.571 .074 108.571 6.569 131.088 6.569 134.805 .074 108.571 .074"/>
  </g>
</svg>
