<?xml version="1.0" encoding="UTF-8"?>
<svg width="52px" height="52px" viewBox="0 0 52 52" version="1.1" xmlns="http://www.w3.org/2000/svg" xmlns:xlink="http://www.w3.org/1999/xlink">
    <!-- Generator: Sketch 51.3 (57544) - http://www.bohemiancoding.com/sketch -->
    <title>brain</title>
    <desc>Created with Sketch.</desc>
    <defs></defs>
    <g id="Page-1" stroke="none" stroke-width="1" fill="none" fill-rule="evenodd">
        <g id="brain" transform="translate(1.000000, 1.000000)" stroke="#000000">
            <rect id="Rectangle-path" stroke-width="2" fill="#FFEC2B" fill-rule="nonzero" x="4" y="4" width="46" height="46"></rect>
            <rect id="Rectangle-path" stroke-width="2" fill="#FFFFFF" fill-rule="nonzero" x="0" y="0" width="46" height="46"></rect>
            <path d="M19.875375,10.9635417 C18.1138609,10.9635417 16.6194836,12.0875 16.040863,13.65075 C14.4999779,13.7536667 13.1317463,14.7083 12.5301267,16.1475083 C12.2368493,16.8489667 12.1613715,17.5990667 12.2677209,18.3204583 C10.8502116,19.4808167 10.1723539,21.3263833 10.5282239,23.131975 C10.7562515,24.2890833 11.3825726,25.3030833 12.2634884,26.0243667 C12.0741824,27.3258833 12.5150326,28.6490667 13.4739412,29.5684917 C14.1797778,30.24525 15.093913,30.628425 16.0429791,30.6920167 C16.6994683,32.4676 18.5005243,33.5923167 20.410767,33.3412 C21.7221756,33.1687333 22.8169544,32.3797417 23.4347837,31.2951083 C24.0526109,32.3797417 25.1473896,33.1687333 26.4587982,33.3412 C28.369042,33.5923167 30.1700978,32.4676 30.8265859,30.6920167 C31.775653,30.6281 32.689787,30.24525 33.3956231,29.5684917 C34.3545324,28.6490667 34.7953829,27.3258833 34.6060769,26.0243667 C35.4869927,25.3030833 36.1133154,24.2890833 36.3413408,23.131975 C36.6972125,21.3263833 36.0193535,19.4808167 34.6018454,18.3204583 C34.7081963,17.5990667 34.6327096,16.8489667 34.3394383,16.1475083 C33.738094,14.70895 32.3708396,13.7539917 30.8308195,13.65075 C30.2516316,12.0875 28.7557043,10.9635417 26.9941902,10.9635417 C25.4625616,10.9635417 24.1389059,11.8182917 23.4347837,13.066725 C22.7306593,11.8182917 21.4070036,10.9635417 19.875375,10.9635417 Z M19.875375,12.046875 C21.5490459,12.046875 22.8930239,13.3896667 22.8930412,15.05995 C22.8926478,15.0718634 22.8926478,15.0837866 22.8930412,15.0957 L22.8930412,29.2784833 C22.8930596,30.7945 21.7751257,32.0680667 20.2689836,32.2661 C18.9632939,32.4377 17.7322167,31.75065 17.1709005,30.6114167 C17.2392805,30.5973333 17.3081773,30.58975 17.3761694,30.5713333 C17.6651905,30.4940075 17.8368992,30.1971695 17.7598101,29.9081221 C17.682721,29.6190747 17.3859893,29.4471356 17.0968363,29.5239667 C16.0754997,29.7972917 14.9876973,29.5238583 14.2251838,28.787625 C13.6392583,28.2258083 13.3174636,27.4607583 13.3025309,26.6696 C13.5691779,26.7952667 13.8432495,26.9070667 14.1341882,26.9849583 C14.4234323,27.0620358 14.7204089,26.8900974 14.7975375,26.6009039 C14.8746662,26.3117103 14.702746,26.0147504 14.4135235,25.9375917 C12.9720615,25.551925 11.8785649,24.3839833 11.5905445,22.9224583 C11.3414982,21.65875 11.7344203,20.3716417 12.6126576,19.4629417 C12.8107335,19.884575 13.0729814,20.2811833 13.4146883,20.6224333 C13.5505089,20.7641786 13.7523939,20.8213678 13.9423901,20.7719188 C14.1323864,20.7224698 14.2807626,20.5741206 14.3302268,20.3841526 C14.379691,20.1941846 14.3225028,19.9923249 14.1807441,19.8565167 C13.3143714,18.9913667 13.057059,17.6928833 13.5289619,16.5641583 C13.9321161,15.599775 14.7983661,14.9307083 15.8059675,14.759325 C15.79846,14.860075 15.7742258,14.9570333 15.7742247,15.0598417 C15.7714638,15.2551847 15.874111,15.4368821 16.0428612,15.5353592 C16.2116113,15.6338363 16.4203203,15.6338363 16.5890705,15.5353592 C16.7578206,15.4368821 16.8604678,15.2551847 16.8577069,15.0598417 C16.8577245,13.3895583 18.2017041,12.0467667 19.875375,12.0467667 L19.875375,12.046875 Z M26.9941902,12.046875 C28.6678611,12.046875 30.0139569,13.3896667 30.0139754,15.05995 C30.0112229,15.2552877 30.113872,15.4369764 30.2826188,15.5354484 C30.4513655,15.6339203 30.660068,15.6339203 30.8288148,15.5354484 C30.9975616,15.4369764 31.1002107,15.2552877 31.0974582,15.05995 C31.0974571,14.9570333 31.073224,14.8602917 31.0657165,14.7594333 C32.0724419,14.9313583 32.937723,15.6005333 33.340606,16.5642667 C33.8125093,17.6929917 33.5551949,18.991475 32.6888239,19.856625 C32.5470622,19.9924325 32.4898716,20.1942936 32.5393353,20.3842635 C32.588799,20.5742334 32.7371766,20.7225841 32.9271748,20.7720328 C33.1171729,20.8214814 33.3190593,20.7642899 33.4548793,20.6225417 C33.7965864,20.2812917 34.0588333,19.8846833 34.2569099,19.46305 C35.1351477,20.37175 35.5280684,21.6588583 35.2790241,22.9225667 C34.9910026,24.3840917 33.8975054,25.5520333 32.4560449,25.9377 C32.1670238,26.0150258 31.9953151,26.3118638 32.0724042,26.6009113 C32.1494933,26.8899587 32.446225,27.0618977 32.735378,26.9850667 C33.026318,26.9070667 33.3003894,26.795375 33.5670357,26.6697083 C33.5521074,27.4608667 33.2303097,28.2259167 32.6443845,28.7877333 C31.8818695,29.5239667 30.7940674,29.7974 29.7727322,29.524075 C29.5855665,29.4740482 29.385927,29.5277029 29.2490698,29.6648136 C29.1122126,29.8019242 29.0589474,30.0016426 29.1093531,30.1886827 C29.1597588,30.3757229 29.3061709,30.5216448 29.4933979,30.5714417 C29.5613879,30.5898583 29.6302771,30.5974417 29.6986669,30.611525 C29.1373507,31.7507583 27.9062734,32.4378083 26.6005838,32.2662083 C25.0944417,32.068175 23.9765078,30.7946083 23.9765262,29.2785917 L23.9765262,15.0598417 C23.9765435,13.3895583 25.3205214,12.0467667 26.9941924,12.0467667 L26.9941902,12.046875 Z M19.8203525,12.7408583 C19.6267255,12.750576 19.4530058,12.8628792 19.3646767,13.0354354 C19.2763477,13.2079917 19.2868395,13.4145642 19.3921973,13.5772858 C19.4975552,13.7400074 19.6817596,13.8341367 19.875375,13.8241917 C20.5660228,13.8241917 21.1133477,14.3713833 21.1133369,15.05995 C21.1105844,15.2552877 21.2132335,15.4369764 21.3819803,15.5354484 C21.550727,15.6339203 21.7594295,15.6339203 21.9281763,15.5354484 C22.0969231,15.4369764 22.1995722,15.2552877 22.1968197,15.05995 C22.1968392,13.7850833 21.1508538,12.7408583 19.875375,12.7408583 C19.857046,12.7399266 19.8386815,12.7399266 19.8203525,12.7408583 Z M26.9941902,12.7408583 C25.7187114,12.7408583 24.672726,13.7850833 24.6727455,15.05995 C24.669993,15.2552877 24.7726421,15.4369764 24.9413889,15.5354484 C25.1101357,15.6339203 25.3188382,15.6339203 25.487585,15.5354484 C25.6563318,15.4369764 25.7589809,15.2552877 25.7562284,15.05995 C25.7562175,14.3713833 26.3035435,13.8241917 26.9941902,13.8241917 C27.1895598,13.8269518 27.3712818,13.7243186 27.4697722,13.5555918 C27.5682626,13.386865 27.5682626,13.178185 27.4697722,13.0094582 C27.3712818,12.8407314 27.1895598,12.7380982 26.9941902,12.7408583 Z M16.5762556,16.1601833 C16.400844,16.1586212 16.2355211,16.2420314 16.1325641,16.3840384 C16.0296072,16.5260453 16.0017466,16.7090902 16.0577924,16.8752917 C16.1319693,17.0974833 16.2253023,17.3101417 16.3350115,17.51435 C15.8793041,17.4710167 15.418373,17.4731833 14.9616131,17.5566 C14.7643382,17.584238 14.5981427,17.717887 14.5288421,17.9046204 C14.4595416,18.0913537 14.4983147,18.3010498 14.6298068,18.4506665 C14.7612988,18.6002832 14.9642993,18.6656862 15.1584174,18.620975 C16.0719615,18.453275 17.0141422,18.620975 17.81845,19.0800917 C17.8254224,19.083857 17.8324766,19.087469 17.8396075,19.090925 C17.8437839,19.0946011 17.8480166,19.0982126 17.8523042,19.1017583 C17.8640796,19.1079762 17.8760802,19.1137579 17.8882817,19.1190917 C17.9021708,19.1247303 17.9162879,19.1297903 17.9305967,19.1342583 C17.9354716,19.1379528 17.9404087,19.1415644 17.9454059,19.1450917 C17.9537769,19.1489179 17.9622441,19.1525301 17.9707992,19.155925 C17.9826628,19.1599509 17.9946625,19.1635642 18.0067767,19.1667583 C18.0242187,19.1712463 18.0418737,19.1748619 18.0596759,19.1775917 C18.0772984,19.1784529 18.0949525,19.1784529 18.112575,19.1775917 C18.1259712,19.178089 18.1393813,19.178089 18.1527775,19.1775917 C18.188681,19.1739112 18.2241268,19.1666529 18.2585867,19.155925 C18.2635229,19.1559925 18.2684597,19.1559925 18.2733959,19.155925 C18.3026453,19.1457289 18.3309662,19.1330435 18.3580475,19.1180083 C18.3623351,19.1144626 18.3665679,19.1108511 18.3707442,19.107175 C18.3823105,19.1000192 18.3936032,19.0924305 18.4045984,19.084425 C18.4081876,19.0808636 18.4117269,19.0772521 18.415215,19.0735917 C18.4261014,19.0656831 18.4366893,19.0573718 18.4469567,19.048675 C18.450546,19.0451136 18.4540852,19.0415021 18.4575734,19.0378417 C18.4678209,19.0284749 18.4777046,19.0187177 18.4872025,19.0085917 C18.4900649,19.0050164 18.4928818,19.001405 18.4956525,18.9977583 C18.5293928,18.9609411 18.5578798,18.9196361 18.5803042,18.8750167 C18.5810264,18.8750152 18.5817486,18.8750152 18.5824709,18.8750167 C18.5839179,18.8714208 18.5853263,18.8678095 18.5866959,18.8641833 C18.5998397,18.8355514 18.6104605,18.8058276 18.6184375,18.77535 C18.6199005,18.7710346 18.6213089,18.7667009 18.6226625,18.76235 C18.6259836,18.7491002 18.6288023,18.7357295 18.6311125,18.7222667 C18.6318874,18.7179423 18.6326097,18.7136086 18.6332792,18.7092667 C18.6374895,18.677675 18.6389033,18.6457735 18.6375042,18.6139333 C18.6375562,18.6096002 18.6375562,18.6052665 18.6375042,18.6009333 C18.6366486,18.5868002 18.6352392,18.572706 18.6332792,18.5586833 C18.6326097,18.5543414 18.6318874,18.5500077 18.6311125,18.5456833 C18.6288023,18.5322205 18.6259836,18.5188498 18.6226625,18.5056 C18.6213089,18.5012491 18.6199005,18.4969154 18.6184375,18.4926 C18.6153593,18.4798367 18.6118181,18.4671894 18.6078209,18.4546833 C18.6064673,18.4503324 18.6050588,18.4459987 18.6035959,18.4416833 C18.5984384,18.4288327 18.5927901,18.4161845 18.5866634,18.4037667 C18.5845908,18.399405 18.5824601,18.3950713 18.5802717,18.3907667 C18.5743713,18.3786168 18.5680185,18.3666918 18.5612267,18.3550167 C18.5591381,18.3513809 18.5570074,18.3477696 18.554835,18.3441833 C18.5474999,18.3327001 18.5397341,18.3214977 18.5315542,18.3106 C18.5178156,18.2927196 18.502974,18.2757143 18.4871159,18.2596833 C18.4783119,18.2495969 18.469137,18.2398402 18.45961,18.2304333 C18.4561219,18.2267729 18.4525826,18.2231614 18.4489934,18.2196 C18.4387259,18.2109032 18.428138,18.2025919 18.4172517,18.1946833 C18.4137635,18.1910229 18.4102243,18.1874114 18.406635,18.18385 C18.3956222,18.1762116 18.3843297,18.1689844 18.3727809,18.1621833 C17.766385,17.7913583 17.3109235,17.2190333 17.086147,16.5456333 C17.0134718,16.3250996 16.8083679,16.1753566 16.5761484,16.1732917 L16.5762556,16.1601833 Z M30.2933107,16.1601833 C30.0610907,16.1622479 29.8559864,16.3119909 29.7833109,16.532525 C29.5585344,17.205925 29.1030729,17.77825 28.4966771,18.149075 C28.4916799,18.1526023 28.4867428,18.1562139 28.4818679,18.1599083 C28.4754472,18.1633907 28.4690976,18.1670026 28.4628229,18.1707417 C28.4592337,18.1743031 28.4556944,18.1779145 28.4522063,18.181575 C28.4413199,18.1894835 28.430732,18.1977949 28.4204646,18.2064917 C28.4168753,18.2100531 28.4133361,18.2136645 28.4098479,18.217325 C28.400321,18.2267318 28.3911461,18.2364885 28.3823421,18.246575 C28.3614101,18.2680646 28.3422994,18.2912554 28.3252071,18.3159083 C28.3201108,18.322653 28.315173,18.329516 28.3103979,18.3364917 C28.3052053,18.345377 28.3002669,18.3544084 28.2955888,18.363575 C28.2926695,18.3693022 28.2898524,18.3750809 28.2871388,18.3809083 C28.2834395,18.3880509 28.2798997,18.3952749 28.2765221,18.402575 C28.2719199,18.4136261 28.2676854,18.4248267 28.2638254,18.4361583 C28.2631032,18.4361569 28.262381,18.4361569 28.2616588,18.4361583 C28.2576615,18.4486644 28.2541203,18.4613117 28.2510421,18.474075 C28.2469381,18.4880103 28.2433963,18.502105 28.2404254,18.516325 C28.2396318,18.5213701 28.2389095,18.5264262 28.2382588,18.5314917 C28.2366399,18.5401228 28.2352311,18.548792 28.2340338,18.5574917 C28.2331199,18.5657794 28.2323975,18.5740872 28.2318671,18.5824083 C28.2318151,18.5867415 28.2318151,18.5910752 28.2318671,18.5954083 C28.2306506,18.6301998 28.232791,18.6650275 28.2382588,18.6994083 C28.2389095,18.7044738 28.2396318,18.7095299 28.2404254,18.714575 C28.2422861,18.724382 28.2444174,18.7341357 28.2468171,18.743825 C28.2481707,18.7481759 28.2495792,18.7525096 28.2510421,18.756825 C28.2597484,18.7911429 28.2717986,18.8245248 28.2870196,18.8564917 C28.2877418,18.8564931 28.2884641,18.8564931 28.2891863,18.8564917 C28.2899085,18.8564931 28.2906307,18.8564931 28.2913529,18.8564917 C28.313449,18.8995029 28.341205,18.9393625 28.3738813,18.9750083 C28.376652,18.978655 28.3794689,18.9822664 28.3823313,18.9858417 C28.3918292,18.9959677 28.4017129,19.0057249 28.4119604,19.0150917 C28.4154486,19.0187521 28.4189878,19.0223636 28.4225771,19.025925 C28.4328445,19.0346218 28.4434324,19.0429331 28.4543188,19.0508417 C28.4578069,19.0545021 28.4613462,19.0581136 28.4649354,19.061675 C28.4759306,19.0696805 28.4872233,19.0772692 28.4987896,19.084425 C28.5029659,19.0881011 28.5071987,19.0917126 28.5114863,19.0952583 C28.5438261,19.1127517 28.5778629,19.126908 28.6130704,19.1375083 C28.6596923,19.1522692 28.7080984,19.1606509 28.7569696,19.162425 C28.7612017,19.1624746 28.7654342,19.1624746 28.7696663,19.162425 C28.7830625,19.1629223 28.7964726,19.1629223 28.8098688,19.162425 C28.8148049,19.1624925 28.8197418,19.1624925 28.8246779,19.162425 C28.8375024,19.1592792 28.8502076,19.1556657 28.8627679,19.1515917 C28.8677041,19.1516591 28.872641,19.1516591 28.8775771,19.1515917 C28.8904016,19.1484459 28.9031067,19.1448323 28.9156671,19.1407583 C28.9206033,19.1408258 28.9255401,19.1408258 28.9304763,19.1407583 C28.9726944,19.1280375 29.0132015,19.1102112 29.0510989,19.087675 C29.0538073,19.087675 29.0568406,19.087675 29.0595489,19.087675 C29.0609573,19.0876805 29.0623656,19.0876805 29.0637739,19.087675 C29.8653561,18.629425 30.8022564,18.4681167 31.7111102,18.63495 C31.9052285,18.6796615 32.1082293,18.6142586 32.2397216,18.4646418 C32.3712139,18.3150249 32.409987,18.1053284 32.3406861,17.9185949 C32.2713852,17.7318615 32.1051892,17.5982126 31.9079139,17.570575 C31.4511546,17.4871583 30.9902234,17.4849917 30.5345159,17.528325 C30.6440366,17.3241167 30.7375586,17.1114583 30.8117344,16.8892667 C30.8677801,16.7230654 30.8399197,16.5400209 30.7369631,16.398014 C30.6340065,16.2560071 30.4686841,16.1725968 30.2932728,16.1741583 L30.2933107,16.1601833 Z M20.3218871,17.8444417 C20.1308351,17.8518283 19.9578214,17.9593516 19.8666272,18.1273734 C19.7754331,18.2953951 19.7795616,18.4990364 19.8774908,18.663225 C20.4609264,19.6724583 20.2943336,20.938875 19.4690687,21.763075 C19.3291466,21.8993422 19.2733015,22.1003037 19.322861,22.2892113 C19.3724204,22.4781189 19.5197304,22.6257978 19.7085325,22.6758488 C19.8973347,22.7258997 20.0984705,22.6705928 20.2351251,22.53105 C21.4036594,21.3640833 21.6434639,19.5510167 20.8170734,18.1215583 C20.7174617,17.9432308 20.526,17.8360848 20.3218871,17.8444417 Z M26.4926578,17.8444417 C26.3082831,17.855749 26.1423748,17.9602009 26.052494,18.1215583 C25.2261014,19.5510167 25.4659059,21.3640833 26.6344412,22.53105 C26.771093,22.6706063 26.9722355,22.7259234 27.161046,22.6758742 C27.3498565,22.6258249 27.4971729,22.4781393 27.5467304,22.2892233 C27.5962879,22.1003072 27.5404323,21.8993391 27.4004965,21.763075 C26.5752316,20.938875 26.4086388,19.6724583 26.9920744,18.663225 C27.0900036,18.4990364 27.0941321,18.2953951 27.002938,18.1273734 C26.9117438,17.9593516 26.7387301,17.8518283 26.5476781,17.8444417 C26.5293527,17.8435103 26.5109918,17.8435103 26.4926664,17.8444417 L26.4926578,17.8444417 Z M12.8158105,21.9809333 C12.6535958,21.9936776 12.5056986,22.0786425 12.4129926,22.2123464 C12.3202866,22.3460504 12.2925891,22.5143349 12.3375546,22.6706917 C12.5037307,23.2900333 12.831698,23.8552083 13.2856016,24.308475 C13.419673,24.4578586 13.6253627,24.5208796 13.8201211,24.4722457 C14.0148795,24.4236117 14.1667815,24.271295 14.2148643,24.0764249 C14.262947,23.8815548 14.1993286,23.6760747 14.0495412,23.54245 C13.7301688,23.2235167 13.5019172,22.82485 13.3850619,22.38935 C13.3251058,22.1530172 13.1146323,21.9858532 12.8708311,21.9809333 C12.8525024,21.9800016 12.8341383,21.9800016 12.8158096,21.9809333 L12.8158105,21.9809333 Z M33.9966174,21.9809333 C33.7536097,21.9867928 33.544249,22.1537606 33.4845041,22.38935 C33.3676482,22.82485 33.1393964,23.2235167 32.8200243,23.54245 C32.6702368,23.6760747 32.6066185,23.8815548 32.6547012,24.0764249 C32.7027839,24.271295 32.854686,24.4236117 33.0494444,24.4722457 C33.2442027,24.5208796 33.4498925,24.4578586 33.5839639,24.308475 C34.0378675,23.8552083 34.3658348,23.2900333 34.5320105,22.6706917 C34.5790645,22.505246 34.5447409,22.3272891 34.4395288,22.1912038 C34.3343167,22.0551185 34.1707209,21.9770788 33.9987354,21.9809333 C33.9980131,21.9809348 33.9972909,21.9809348 33.9965687,21.9809333 L33.9966174,21.9809333 Z M18.988697,26.0688917 C18.9574048,26.0698063 18.9262507,26.073431 18.8955845,26.079725 C18.8948623,26.0797236 18.8941401,26.0797236 18.8934179,26.079725 C18.841947,26.0887472 18.7920523,26.1051673 18.7452839,26.128475 C18.7424673,26.128453 18.7396506,26.128453 18.7368339,26.128475 C18.7340173,26.128453 18.7312006,26.128453 18.7283839,26.128475 C18.7219632,26.1319574 18.7156136,26.1355692 18.7093389,26.1393083 C18.7050513,26.142854 18.7008186,26.1464656 18.6966423,26.1501417 C17.8950254,26.6083917 16.9560344,26.7698083 16.0471898,26.602975 C15.8522307,26.5565378 15.6475581,26.6215021 15.5150829,26.7718689 C15.3826076,26.9222358 15.3439716,27.1334403 15.414637,27.3209578 C15.4853025,27.5084753 15.6537251,27.6416719 15.8525016,27.6672417 C16.3096542,27.7517417 16.7702041,27.752825 17.2259003,27.7094917 C17.1163796,27.9135917 17.0228576,28.12625 16.9486807,28.3484417 C16.8752683,28.5348693 16.9107632,28.746588 17.0409639,28.898889 C17.1711647,29.05119 17.3748075,29.1192002 17.5704146,29.0757086 C17.7660218,29.0322171 17.9216477,28.8843266 17.9750264,28.6912083 C18.1981844,28.0226833 18.6490915,27.4542583 19.2489646,27.0832167 C19.2510951,27.0832292 19.2532257,27.0832292 19.2553563,27.0832167 C19.2575229,27.0832167 19.2594729,27.0832167 19.2617479,27.0832167 C19.3082097,27.0556841 19.350293,27.0213602 19.3866021,26.9813833 C19.3954126,26.9719391 19.4038824,26.9621829 19.4119954,26.9521333 C19.5780288,26.7398104 19.5627014,26.4377395 19.3760288,26.2433083 C19.3678575,26.2343602 19.3593883,26.2256886 19.3506354,26.2173083 C19.3457783,26.2128856 19.3408411,26.2085515 19.3358263,26.2043083 C19.3351041,26.2043069 19.3343818,26.2043069 19.3336596,26.2043083 C19.2929356,26.1696097 19.2472956,26.141134 19.1982256,26.1198083 C19.1877849,26.1151411 19.1771991,26.1108056 19.1664839,26.1068083 C19.1602093,26.1030692 19.1538597,26.0994574 19.1474389,26.095975 C19.1460306,26.0959695 19.1446223,26.0959695 19.1432139,26.095975 C19.1272032,26.0908897 19.1109645,26.0865517 19.0945506,26.082975 C19.0833874,26.0789946 19.0720966,26.0753816 19.0606964,26.0721417 C19.0418591,26.0675105 19.0227867,26.0638942 19.0035614,26.0613083 C18.9986253,26.0612409 18.9936884,26.0612409 18.9887523,26.0613083 L18.988697,26.0688917 Z M27.8618232,26.0688917 C27.8143759,26.0710402 27.7674171,26.0794176 27.7221544,26.0938083 C27.7207461,26.0938028 27.7193378,26.0938028 27.7179294,26.0938083 C27.6504948,26.1153978 27.5879466,26.1499945 27.5338224,26.1956417 C27.5331001,26.1956431 27.5323779,26.1956431 27.5316557,26.1956417 C27.3974603,26.3100812 27.3273767,26.4826708 27.3438013,26.658256 C27.3602259,26.8338412 27.4611028,26.9904432 27.6141949,27.0780167 C28.2173266,27.4490583 28.6705142,28.019325 28.8944804,28.6902333 C28.947859,28.8833516 29.1034849,29.0312421 29.2990921,29.0747336 C29.4946993,29.1182252 29.698342,29.050215 29.8285428,28.897914 C29.9587435,28.745613 29.9942384,28.5338943 29.920826,28.3474667 C29.8466502,28.125275 29.7531271,27.9126167 29.6436064,27.7085167 C30.0993019,27.7507667 30.5598519,27.7496833 31.0170044,27.6662667 C31.215781,27.640697 31.3842039,27.5075005 31.4548694,27.319983 C31.525535,27.1324654 31.486899,26.9212607 31.3544237,26.7708939 C31.2219484,26.620527 31.0172757,26.5555627 30.8223164,26.602 C29.9134734,26.7688333 28.9744813,26.602 28.1728644,26.1491667 C28.1707339,26.1491541 28.1686033,26.1491541 28.1664728,26.1491667 C28.1645228,26.1480833 28.1620311,26.1481917 28.1600811,26.1491667 C28.1538065,26.1454276 28.1474568,26.1418157 28.1410361,26.1383333 C28.1368598,26.1346572 28.132627,26.1310457 28.1283394,26.1275 C28.1269311,26.1274945 28.1255228,26.1274945 28.1241144,26.1275 C28.0766821,26.1039981 28.026061,26.0875736 27.9738648,26.07875 C27.9431986,26.072456 27.9120445,26.0688313 27.8807523,26.0679167 C27.8758161,26.0678492 27.8708793,26.0678492 27.8659431,26.0679167 C27.8645348,26.0679112 27.8631264,26.0679112 27.8617181,26.0679167 L27.8618232,26.0688917 Z M21.6466131,28.7306417 C21.348235,28.7353123 21.1098091,28.9803472 21.1133369,29.2787 C21.1133509,29.9672667 20.5660206,30.5164083 19.875375,30.5164083 C19.6800054,30.5136482 19.4982834,30.6162814 19.399793,30.7850082 C19.3013026,30.953735 19.3013026,31.162415 19.399793,31.3311418 C19.4982834,31.4998686 19.6800054,31.6025018 19.875375,31.5997417 C21.1508538,31.5997417 22.1968446,30.5534583 22.1968197,29.2787 C22.1985487,29.1324619 22.1410681,28.9917377 22.0374457,28.8885199 C21.9338233,28.785302 21.7928637,28.7283609 21.6466131,28.7306417 Z M25.1700475,28.7306417 C24.8858693,28.7540222 24.6684492,28.9936329 24.6727455,29.2787 C24.6727206,30.5534583 25.7187114,31.5997417 26.9941902,31.5997417 C27.1895598,31.6025018 27.3712818,31.4998686 27.4697722,31.3311418 C27.5682626,31.162415 27.5682626,30.953735 27.4697722,30.7850082 C27.3712818,30.6162814 27.1895598,30.5136482 26.9941902,30.5164083 C26.3035457,30.5164083 25.7562143,29.9672667 25.7562284,29.2787 C25.7597561,28.9803472 25.5213302,28.7353123 25.2229521,28.7306417 C25.2053296,28.7297805 25.1876755,28.7297805 25.1700529,28.7306417 L25.1700475,28.7306417 Z" id="path14648-6" stroke-width="0.25" fill="#000000"></path>
        </g>
    </g>
</svg>