<?xml version="1.0" encoding="UTF-8"?>
<svg width="52px" height="52px" viewBox="0 0 52 52" version="1.1" xmlns="http://www.w3.org/2000/svg" xmlns:xlink="http://www.w3.org/1999/xlink">
    <!-- Generator: Sketch 51.3 (57544) - http://www.bohemiancoding.com/sketch -->
    <title>heart</title>
    <desc>Created with Sketch.</desc>
    <defs></defs>
    <g id="Page-1" stroke="none" stroke-width="1" fill="none" fill-rule="evenodd">
        <g id="heart" transform="translate(1.000000, 1.000000)" fill-rule="nonzero">
            <rect id="Rectangle-path" stroke="#000000" stroke-width="2" fill="#FFEC2B" x="4" y="4" width="46" height="46"></rect>
            <rect id="Rectangle-path" stroke="#000000" stroke-width="2" fill="#FFFFFF" x="0" y="0" width="46" height="46"></rect>
            <path d="M11.0158004,20.2687807 C11.0099037,20.2460881 11.0046302,20.2231512 11,20.2 L11,18.7 C11,18.4 11.1,18.1 11.2,17.8 C11.5,16.8 11.9,16 12.5,15.3 L12.7,15.1 C13.9,13.8 15.6,13 17.5,13 C19.8206482,13 21.8504179,14.2050682 23,16.0258955 C24.1495821,14.2050682 26.1793518,13 28.5,13 C30.2519533,13 31.8338601,13.6801862 33.0889236,14.8837621 C33.2002398,14.9336008 33.3056801,15.0056801 33.4,15.1 L33.6,15.3 C34.1,16 34.6,16.8 34.8,17.6 C34.9,17.9 34.9,18.2 35,18.5 L35,20.2 C34.5,26.1 27.3,33 23,33 C18.7402648,33 11.634586,26.228617 11.0158004,20.2687807 Z M13.044088,20.3859959 C13.7279655,25.1255582 19.6904696,31 23,31 C26.3625591,31 32.4637904,24.8379876 32.984687,20.1558412 C32.9845892,20.1041958 32.9895804,20.0520979 33,20 L33,18.8 C33,18.7558258 32.9804864,18.6726242 32.9586991,18.5762555 C32.9311652,18.4921379 32.9,18.4116515 32.9,18.3 C32.7,17.6 32.4,17.1 32,16.6 L31.9,16.5 C31,15.5 29.8,15 28.5,15 C26,15 24,17 24,19.5 C24,20.1 23.6,20.5 23,20.5 C22.4,20.5 22,20.1 22,19.5 C22,17 20,15 17.5,15 C16.2,15 15,15.5 14.2,16.5 L14.2,16.6 C13.8,17.1 13.5,17.6 13.3,18.3 C13.2521841,18.3478159 13.2158,18.3899159 13.1881146,18.4290331 C13.1616138,18.5860221 13.1,18.743011 13.1,18.9 L13.1,19.9 C13.1333927,20.0669633 13.1110318,20.2339266 13.044088,20.3859959 Z" id="Combined-Shape" fill="#000000"></path>
        </g>
    </g>
</svg>