<?xml version="1.0" encoding="UTF-8"?>
<svg width="52px" height="52px" viewBox="0 0 52 52" version="1.1" xmlns="http://www.w3.org/2000/svg" xmlns:xlink="http://www.w3.org/1999/xlink">
    <!-- Generator: Sketch 51.3 (57544) - http://www.bohemiancoding.com/sketch -->
    <title>network</title>
    <desc>Created with Sketch.</desc>
    <defs></defs>
    <g id="Page-1" stroke="none" stroke-width="1" fill="none" fill-rule="evenodd">
        <g id="network" transform="translate(1.000000, 1.000000)" fill-rule="nonzero" stroke="#000000">
            <rect id="Rectangle-path" stroke-width="2" fill="#FFEC2B" x="4" y="4" width="46" height="46"></rect>
            <rect id="Rectangle-path" stroke-width="2" fill="#FFFFFF" x="0" y="0" width="46" height="46"></rect>
            <path d="M32.6678893,11.0822262 C32.3129164,11.0879438 32.0294578,11.382621 32.0341272,11.7410712 L32.0341272,13.6933046 L30.1007538,13.6933046 C30.0793743,13.6922278 30.0579549,13.6922278 30.0365754,13.6933046 C29.6875426,13.7190125 29.4227024,14.0214309 29.4401423,14.3743657 C29.4575822,14.7273005 29.7509202,15.0015964 30.1007538,14.9920934 L32.0341272,14.9920934 L32.0341272,16.9443266 C32.0210408,17.1848431 32.1406766,17.4129658 32.3450522,17.5372015 C32.5494278,17.6614372 32.8050683,17.6614372 33.009444,17.5372015 C33.2138196,17.4129658 33.3334554,17.1848431 33.3203689,16.9443266 L33.3203689,14.9920934 L35.2537438,14.9920934 C35.4919365,15.005307 35.7178549,14.8845041 35.8408902,14.678135 C35.9639254,14.4717659 35.9639254,14.2136321 35.8408902,14.007263 C35.7178549,13.8008939 35.4919365,13.680091 35.2537438,13.6933046 L33.3203689,13.6933046 L33.3203689,11.7410712 C33.3226471,11.5656397 33.2546357,11.3967201 33.1317747,11.2726605 C33.0089138,11.148601 32.8416261,11.079926 32.6678893,11.0822262 Z M23.0170636,13.7014051 C20.5349071,13.7014051 18.5085553,15.747592 18.5085319,18.2539162 C18.5085553,20.7603787 20.5349071,22.8064272 23.0170636,22.8064272 C25.4992201,22.8064272 27.5255719,20.7603787 27.5255954,18.2539162 C27.5255718,15.747592 25.4992201,13.7014051 23.0170636,13.7014051 Z M23.0170636,15.0028941 C24.8031091,15.0028941 26.2366625,16.4504522 26.2366795,18.2539162 C26.2366625,20.0575185 24.8031091,21.5049384 23.0170636,21.5049384 C21.2310181,21.5049384 19.7974648,20.0575185 19.7974478,18.2539162 C19.7974648,16.4504522 21.2310181,15.0028941 23.0170636,15.0028941 Z M23.0170636,24.1052161 C18.0863126,24.1052161 14,27.5332925 14,31.9087492 L15.288916,31.9087492 C15.288916,28.3583652 18.6712598,25.4067049 23.0170636,25.4067049 C27.3628669,25.4067049 30.7452116,28.3583652 30.7452116,31.9087492 L32.0314533,31.9087492 C32.0314533,27.5332925 27.9478143,24.1052161 23.0170636,24.1052161 Z" id="circle6277" stroke-width="0.5" fill="#000000"></path>
        </g>
    </g>
</svg>