<svg xmlns="http://www.w3.org/2000/svg" width="121" height="63" viewBox="0 0 121 63">
  <g fill="#FFF">
    <path d="M98.9870144 4.1028865L102.386091 3.54206029 102.386091 11.3345929 111.578375 11.3345929 111.578375 13.6664493C111.578375 15.1423077 110.396088 16.3229945 108.918229 16.3229945L102.386091 16.3229945 102.386091 26.8311067C102.386091 28.8973086 102.71122 30.4026842 103.361478 31.2881993 104.011736 32.1737143 105.134909 32.6164719 106.730997 32.6164719 107.824613 32.6164719 108.770443 32.4984031 109.627601 32.2622659 110.455202 32.0261285 111.135018 31.8195083 111.63749 31.612888L112.258191 34.564605C112.494648 35.6567403 112.021733 36.6012897 110.662103 37.0735644 109.95273 37.3097017 108.297528 37.7524592 105.96251 37.7524592 104.129965 37.7524592 102.563434 37.5163218 101.351589 37.01453 100.110188 36.5127381 99.1348004 35.8043261 98.3958707 34.8597767 97.6569411 33.9152273 97.1544688 32.7935748 96.8588971 31.4357851 96.5633252 30.1075125 96.4155392 28.5726197 96.4155392 26.8606239L96.4155392 7.11363775C96.4155392 5.6377793 97.5091551 4.33902386 98.9870144 4.1028865zM120.77066 3.77819765C120.77066 4.89985007 120.415974 5.78536515 119.677044 6.43474286 118.938115 7.08412058 118.080956 7.40880944 117.105569 7.40880944 116.071068 7.40880944 115.213909 7.08412058 114.47498 6.43474286 113.73605 5.78536515 113.381364 4.89985007 113.381364 3.77819765 113.381364 2.62702805 113.73605 1.7119958 114.47498 1.06261809 115.213909.413240367 116.071068.0885515072 117.105569.0885515072 118.080956.0885515072 118.938115.413240367 119.677044 1.09213526 120.415974 1.77103014 120.77066 2.62702805 120.77066 3.77819765zM120.090845 37.1621158L118.406085 37.1621158C116.011953 37.1621158 114.090736 35.2434999 114.090736 32.8526091L114.090736 11.3345929 116.130182 11.3345929C118.317414 11.3345929 120.090845 13.1056231 120.090845 15.2898935L120.090845 37.1621158zM70.6416735 24.4106988C70.6416735 22.1378768 70.9668025 20.1602264 71.6466177 18.4482307 72.326433 16.7362348 73.2131486 15.3194108 74.3363217 14.1977583 75.4594947 13.0761059 76.7304536 12.220108 78.1787558 11.6297646 79.6270579 11.0689384 81.1049172 10.7737667 82.6123337 10.7737667 86.1591959 10.7737667 88.9375713 11.865902 90.9179028 14.0796897 92.8982342 16.2934774 93.9031785 19.5698832 93.9031785 23.9384242 93.9031785 24.263113 93.9031785 24.6468362 93.8736213 25.0600765 93.8440641 25.473317 93.8440641 25.827523 93.814507 26.181729L76.8191252 26.181729C76.9964683 28.2479309 77.7058408 29.841858 79.0063569 30.9930276 80.3068732 32.11468 82.198533 32.7050233 84.6517794 32.7050233 86.1000815 32.7050233 87.4301548 32.5869547 88.6124423 32.3213002 88.9080141 32.2622659 89.203586 32.2032314 89.4696007 32.11468 90.5632165 31.8490254 91.6272752 32.5869547 91.8046182 33.6790899L92.2479761 36.3651523C91.922847 36.5422554 91.4794893 36.6898412 90.8883456 36.8669441 90.326759 37.0440472 89.6469437 37.2211503 88.9080141 37.368736 88.1690844 37.5163218 87.3710404 37.6343906 86.513882 37.7229422 85.6567238 37.8114935 84.7995654 37.870528 83.9128498 37.870528 81.6369465 37.870528 79.6861723 37.5458391 78.0014127 36.8669441 76.3166531 36.1880494 74.9570226 35.273017 73.8634066 34.0628132 72.7697909 32.8526091 71.9717468 31.4653022 71.4397174 29.841858 70.9076881 28.1298621 70.6416735 26.3588319 70.6416735 24.4106988zM87.9621842 21.7541537C87.9621842 20.9276729 87.8439555 20.1602264 87.607498 19.4222973 87.3710404 18.6843681 87.0459115 18.0349904 86.6025536 17.5036813 86.1591959 16.9723722 85.6271666 16.5296146 84.9769085 16.234443 84.3266503 15.9097542 83.5581635 15.7621683 82.671448 15.7621683 81.7551753 15.7621683 80.9571312 15.9392713 80.2477588 16.2934774 79.5679435 16.6476834 78.9767997 17.090441 78.5038848 17.6512671 78.0309699 18.2120933 77.6467264 18.861471 77.3807118 19.5698832 77.1146971 20.2782952 76.937354 21.0162244 76.8486824 21.7836708L87.9621842 21.7541537zM45.0451507 24.2040786C45.0451507 26.2407633 44.749579 28.100345 44.1879925 29.7828237 43.6264058 31.4653022 42.7988046 32.8821264 41.734746 34.0923302 40.6706873 35.273017 39.4292855 36.1880494 37.9218691 36.8669441 36.4440098 37.5163218 34.8183646 37.8410108 33.0153762 37.8410108 31.212388 37.8410108 29.6162999 37.5163218 28.1384407 36.8669441 26.6605814 36.2175664 25.4191795 35.273017 24.3551209 34.0923302 23.2910622 32.9116436 22.4930182 31.4653022 21.9018745 29.7828237 21.3107308 28.100345 21.0151589 26.2407633 21.0151589 24.2040786 21.0151589 22.167394 21.3107308 20.3078123 21.9018745 18.6548508 22.4930182 17.0018894 23.3206194 15.5555482 24.3846781 14.3748614 25.4487367 13.1941746 26.7196958 12.2791423 28.1975551 11.6297646 29.6754143 10.9803869 31.2715024 10.655698 33.0153762 10.655698 34.7592502 10.655698 36.3848954 10.9803869 37.8627547 11.6297646 39.340614 12.2791423 40.6115729 13.1941746 41.6756316 14.3748614 42.7396902 15.5555482 43.5377343 16.9723722 44.1288781 18.6548508 44.749579 20.3078123 45.0451507 22.167394 45.0451507 24.2040786zM39.1337136 24.2040786C39.1337136 21.6360849 38.6016843 19.5994002 37.5376256 18.0940247 36.473567 16.588649 34.9661505 15.8507199 33.0744906 15.8507199 31.1532736 15.8507199 29.6754143 16.588649 28.6113556 18.0940247 27.547297 19.5994002 27.0152676 21.6360849 27.0152676 24.2040786 27.0152676 26.8015895 27.547297 28.8677914 28.6113556 30.3731669 29.6754143 31.8785426 31.1828308 32.645989 33.0744906 32.645989 34.9957077 32.645989 36.473567 31.8785426 37.5376256 30.3731669 38.6016843 28.8677914 39.1337136 26.8015895 39.1337136 24.2040786zM19.3008421 27.3033815C19.0052703 26.4769007 18.5323553 25.7389714 17.8820972 25.1191108 17.2318391 24.4697331 16.4337951 23.908907 15.4288509 23.3775979 14.4534638 22.875806 13.2416191 22.3444971 11.8228742 21.813188 10.9657158 21.5180163 10.2267862 21.2228446 9.63564248 20.9571901 9.04449877 20.6915355 8.57158382 20.3963638 8.1873404 20.1307093 7.83265417 19.8650549 7.5666395 19.5403659 7.41885358 19.215677 7.27106765 18.8909882 7.18239609 18.507265 7.18239609 18.0940247 7.18239609 17.2380268 7.5666395 16.6181662 8.33512633 16.2049259 9.10361316 15.7916854 10.0790003 15.5850652 11.2908449 15.5850652 12.266232 15.5850652 13.1825048 15.6440996 13.9805488 15.7916854 13.9805488 15.7916854 14.4830209 15.8802369 14.4830209 15.8802369 16.2268949 16.0868571 17.85254 14.9947218 18.2072263 13.2532089L18.473241 11.9544535C17.2909535 11.5412131 16.1382234 11.3050758 15.3697365 11.1574899 14.335235 10.9508697 12.7687042 10.7442495 11.0248302 10.7442495 8.00999728 10.7442495 5.64542244 11.4231444 3.90154849 12.7809342 2.15767454 14.138724 1.27095898 16.0278228 1.27095898 18.3891964 1.27095898 19.5994002 1.44830209 20.6325012 1.83254551 21.4884991 2.21678892 22.3149798 2.71926107 23.0529091 3.39907634 23.6432525 4.04933441 24.2335959 4.84737843 24.7649048 5.73409399 25.2076624 6.65036675 25.6504199 7.62575387 26.0636604 8.71936974 26.4769007 10.4928009 27.1262784 11.7637598 27.7461389 12.5618039 28.3069652 13.3302907 28.8677914 13.7145341 29.5762034 13.7145341 30.4322014 13.7145341 31.3472336 13.3598479 31.9966113 12.6209182 32.3803345 11.8819886 32.7640577 10.7292584 32.9411607 9.16272752 32.9411607 7.50752513 32.9411607 6.23656614 32.7640577 5.43852214 32.5574374 4.78826406 32.4098516 4.37446346 32.2622659 3.81287694 32.2622659 2.27590329 32.2622659.857158382 33.2363324.413800597 34.7712252L.0886715567 36.0109463C.798044009 36.3356352 2.48280358 36.8964614 3.63553382 37.1916331 4.87693561 37.5163218 6.41390926 37.7819765 9.16272752 37.7819765 12.5618039 37.7819765 15.1628362 37.1621158 16.9953818 35.8928777 18.8279272 34.6236393 19.7442 32.7640577 19.7442 30.2846155 19.7442 29.1334458 19.596414 28.1298621 19.3008421 27.3033815z"/>
    <g transform="translate(37.538 43.98)">
      <path d="M79.8635153 11.0689384C81.6665037 11.0689384 83.0852486 9.59307995 83.1148058 7.82204981 82.996577 7.05460341 82.7305624 5.6377793 80.7206737 5.6377793 78.533442 5.6377793 77.8240695 8.67804772 76.0506384 10.6261809 75.9028526 11.7478333 74.8387938 12.7218999 73.5382777 12.8990029 73.8634066 13.2236917 74.5727791 13.4303119 75.4299375 13.4303119 76.9964683 13.4303119 78.8881283 12.9580372 79.8930725 11.9839706 78.5629992 12.0134878 77.7058408 11.1574899 77.6171692 9.97680316 78.2969845 10.7737667 79.0063569 11.0689384 79.8635153 11.0689384zM65.9125238 6.22812268C65.9125238 5.25405609 65.8534094 4.60467837 65.2327086 4.60467837 64.9371366 4.60467837 64.8189079 4.66371271 64.5528933 4.75226422 64.7893507 7.99915282 64.050421 10.8918354 63.1341483 10.8918354 61.9518609 10.8918354 62.5430046 3.89626633 60.0306439 3.89626633 57.7251834 3.89626633 57.4000543 9.47501127 57.1340396 9.47501127 56.9566966 9.47501127 56.9271394 7.99915282 56.9271394 6.90701757 57.015811 6.37570853 57.0749252 5.90343381 57.0749252 5.51971062 57.0749252 4.98840158 56.868025 4.1028865 55.6857375 4.54564405 55.7152947 8.53046187 54.9172507 10.9508697 54.0305351 10.9508697 52.7004618 10.9508697 52.7004618 7.32025793 52.7004618 6.34619136 52.7004618 5.37212477 52.7595762 4.07336933 51.3112741 4.54564405 51.1043738 8.02866999 50.1881011 10.655698 49.5969573 10.655698 48.7397989 10.655698 48.917142 4.63419554 47.0550394 4.63419554 45.399837 4.63419554 44.8678077 10.3310092 44.5131214 10.3310092 43.8924206 10.3310092 44.7200218 3.9257835 42.2963325 3.9257835 41.0253736 3.9257835 40.5229013 6.08053683 40.0204292 8.47142753 39.9317577 8.94370223 39.8135289 8.94370223 39.8135289 8.41239319 39.8135289 7.96963566 39.7839717 7.49736095 39.8135289 7.08412058 40.4342298 4.66371271 39.6657431 3.77819765 38.5721271 4.42757537 38.9268133 8.88466789 36.8873675 11.0394212 35.3208367 11.0394212 34.7592502 11.0394212 34.3158925 10.8032839 33.9907634 10.4195607 35.8824233 9.2683911 36.7100244 7.94011849 36.7100244 6.67088021 36.7100244 5.28357326 35.9119804 4.45709254 34.5819071 4.45709254 32.7198044 4.45709254 31.6853029 6.37570853 31.6853029 7.99915282 31.6853029 8.88466789 31.862646 9.62259712 32.1286606 10.2424577 31.4784026 10.5376294 30.8872589 10.8032839 30.3256724 11.0689384 30.266558 9.38645978 30.0892149 7.64494679 29.9414289 6.02150249 28.9364847 5.75584798 28.67047 6.22812268 28.5817984 7.11363775 28.4044553 9.12080525 27.6655256 10.3900435 26.9857104 10.3900435 26.4832383 10.3900435 26.1876663 9.79970014 26.1581092 9.15032242 25.9807662 5.93295098 28.5817984 5.01791875 29.9709861 5.49019345 30.266558 4.78178139 29.9414289 4.27998952 28.7000272 4.27998952 27.1926107 4.27998952 26.0694376 5.19502175 25.2418365 6.34619136 24.6802499 7.11363775 24.059549 7.67446396 23.2023906 8.35335885 23.2319478 8.14673867 23.2319478 7.96963566 23.2319478 7.79253264 23.2319478 5.51971062 21.9905461 4.51612688 20.8082586 4.51612688 19.8328715 4.51612688 19.2121707 5.10647026 18.8574844 5.99198532 18.7688128 5.10647026 18.5914697 4.69322988 18.0594404 4.69322988 17.8229828 4.69322988 17.5274111 4.75226422 17.202282 4.92936724 17.3500679 5.43115911 17.4091823 6.55281153 17.4091823 7.26122359 17.4091823 10.0063203 16.6111383 11.2165243 15.8722086 11.2165243 15.0150502 11.2165243 14.8672643 7.96963566 14.8081499 6.70039738 14.6899213 6.67088021 14.5716925 6.61184587 14.3943494 6.61184587 13.6258625 6.61184587 13.5076338 7.64494679 13.3302907 8.61901338 13.1233904 9.68163146 12.5026895 11.0394212 11.5864167 11.0394212 11.0248302 11.0394212 10.6997012 10.5081122 10.6405868 9.56356278 10.5519152 7.61542963 12.1480033 5.3426076 14.6899213 6.05101966 15.0150502 5.28357326 14.5125781 4.69322988 13.4485194 4.69322988 11.6159739 4.69322988 10.0790003 6.08053683 9.42874219 7.70398113 8.74892692 9.20935676 7.5666395 11.3936273 5.17250748 11.3936273 3.4877479 11.3936273 2.18723173 9.91776882 2.18723173 6.81846606 2.18723173 4.13240367 3.87199131 1.59392713 5.67497963 1.59392713 6.9459386 1.59392713 7.21195328 2.83364823 7.12328172 3.98481782 7.7735398 4.51612688 8.83759848 4.01433499 8.83759848 2.71557956 8.83759848 1.80054731 8.09866884.295171691 5.73409399.295171691 2.80793263.295171691.236457485 3.21737143.236457485 7.02508624.236457485 10.7442495 2.12811736 12.9285201 4.78826406 12.9285201 6.47302363 12.9285201 8.06911165 11.9839706 9.16272752 10.2129405 9.42874219 11.7478333 10.4928009 12.4267282 11.2908449 12.4267282 12.5618039 12.4267282 13.4189622 11.6002475 13.86232 10.478595 14.1578919 11.6002475 14.7490355 12.4267282 15.7539799 12.4267282 16.4633523 12.4267282 16.9953818 12.0725222 17.4091823 11.5116959 17.2318391 15.4079623 17.0249388 17.9169216 19.3599565 17.4151297 19.0052703 16.2934774 18.8870416 14.2863098 18.8870416 12.4562454 18.8870416 7.49736095 19.7146428 5.84439947 20.7491443 5.84439947 21.488074 5.84439947 21.7245313 6.78894889 21.7245313 7.79253264 21.7245313 8.32384168 21.665417 8.94370223 21.5471882 9.53404561 20.2762293 10.3310092 19.2712849 10.9508697 19.2712849 11.7478333 19.2712849 12.3676939 19.7442 12.4267282 20.1580005 12.4267282 21.1333877 12.4267282 22.286118 11.4821788 22.936376 9.68163146 23.4979625 9.32742544 24.059549 8.94370223 24.6211355 8.41239319 24.5915783 8.58949621 24.5915783 8.76659922 24.5915783 8.9732194 24.5915783 10.7442495 25.3600651 11.8363848 26.6310242 11.8363848 27.6064112 11.8363848 28.3453409 11.1574899 28.8478131 10.124389 28.8773703 10.7147324 28.9069275 11.2755586 28.9069275 11.7773505 26.926596 12.6923827 24.7393643 13.607415 24.7393643 16.2049259 24.7393643 17.5331985 25.7147514 18.5367822 26.9561532 18.5367822 29.7049715 18.5367822 30.3552296 15.6145825 30.3552296 12.2496252 31.2419452 11.865902 31.9217604 11.5707303 32.6902473 11.1870071 33.3405053 12.0134878 34.2567781 12.4267282 35.0843793 12.4267282 36.65091 12.4267282 37.8036403 11.6002475 38.7494703 9.91776882 38.9268133 11.1870071 39.2519424 12.4267282 39.9317577 12.4267282 41.1731595 12.4267282 41.4096169 5.99198532 42.3258897 5.99198532 43.0352622 5.99198532 42.4441185 12.9580372 44.3062211 12.9580372 45.9023091 12.9580372 46.197881 6.81846606 46.9663679 6.81846606 47.5279543 6.81846606 47.5575115 12.4267282 49.3013855 12.4267282 50.1585439 12.4267282 51.0748166 11.3936273 51.5477316 9.2683911 51.754632 10.6852152 52.4935616 12.4267282 53.8827493 12.4267282 54.7103505 12.4267282 55.419723 11.6002475 55.9517522 10.5081122 56.0995382 11.6297646 56.4246672 12.4267282 57.045368 12.4267282 58.6710133 12.4267282 58.6118989 5.99198532 59.882858 5.99198532 60.8878022 5.99198532 60.5626732 12.4267282 62.9568053 12.4267282 64.0799782 12.4267282 64.6120075 11.4526616 64.9371366 10.2424577 65.3804944 12.0134878 66.089867 12.4267282 66.6514534 12.4267282 67.0061396 12.4267282 67.3017115 12.3086595 67.6563977 11.865902 65.7647378 11.0099041 65.9125238 8.1172215 65.9125238 6.22812268zM27.0152676 17.2675439C26.4536811 17.2675439 26.128552 16.7362348 26.128552 16.1163743 26.128552 14.4634129 27.3403967 13.5778978 28.8478131 12.8399686 28.7591415 16.4705803 27.9315403 17.2675439 27.0152676 17.2675439zM34.4341211 5.57874496C34.9957077 5.57874496 35.3208367 6.08053683 35.2617223 6.81846606 35.2026079 7.67446396 34.5819071 8.67804772 33.4882913 9.44549412 32.8971474 7.85156698 33.3109481 5.57874496 34.4341211 5.57874496zM52.0206465 3.1583371C52.5526758 3.12881993 52.9073621 2.68606239 52.9369193 2.15475334 52.9369193 1.6234443 52.582233 1.18068676 52.0502037 1.21020393 51.5181744 1.2397211 51.0748166 1.68247863 51.0748166 2.21378768 51.0748166 2.74509673 51.5181744 3.18785426 52.0206465 3.1583371zM65.2031514 3.42399161C65.6760663 3.39447444 66.089867 2.98123408 66.089867 2.44992503 66.089867 1.94813316 65.7056235 1.53489279 65.2327086 1.53489279 64.7597935 1.56440996 64.345993 1.97765033 64.345993 2.50895937 64.345993 3.04026842 64.7302363 3.45350878 65.2031514 3.42399161z"/>
      <path d="M83.1148058,7.70398113 C83.0852486,5.66729647 82.1098614,3.95530066 80.6024449,2.56799371 C79.479272,1.53489279 78.1196415,0.737929227 76.7008964,0.147585846 C76.5826678,0.0885515072 76.464439,0.0590343381 76.3462103,0 C76.3462103,0 76.3462103,0 76.3462103,0 C74.6023363,2.09571901 68.5726704,3.6306118 68.5726704,8.02866999 C68.5726704,9.7406658 69.6662864,11.3345929 71.2328172,11.9839706 C72.14909,12.3381767 73.0653626,12.3381767 73.9816354,12.043005 C74.8092366,11.7773505 75.4594947,11.2755586 76.0210812,10.655698 C77.7945124,8.70756489 78.5038848,5.66729647 80.6911165,5.66729647 C82.671448,5.66729647 82.9374626,7.08412058 83.0852486,7.85156698 C83.1148058,7.82204981 83.1148058,7.79253264 83.1148058,7.70398113 Z"/>
    </g>
    <path d="M14.3943494 49.8249815C15.1628362 49.8249815 15.7539799 49.9725673 16.1382234 50.2382218 16.5520239 50.5038763 16.7589242 50.9466338 16.7589242 51.5369772 16.7589242 51.8321489 16.6998098 52.0978034 16.6111383 52.3339408 16.4929095 52.5405609 16.3451236 52.7471812 16.1382234 52.8652498 15.931323 53.0128357 15.6653083 53.1013872 15.3697365 53.1604215 15.0741646 53.2194559 14.7194785 53.2489731 14.335235 53.2489731L13.86232 53.2489731 13.86232 55.1085547 12.9164901 55.1085547 12.9164901 49.9430501C13.1233904 49.8840158 13.3894051 49.8544986 13.6554197 49.8544986 13.9214344 49.8544986 14.1578919 49.8249815 14.3943494 49.8249815zM14.4534638 50.6514621C14.2170063 50.6514621 14.010106 50.6514621 13.86232 50.6809793L13.86232 52.4520095 14.335235 52.4520095C14.8081499 52.4520095 15.133279 52.3929751 15.3992937 52.2453892 15.6357511 52.1273206 15.7835371 51.8616661 15.7835371 51.5074601 15.7835371 51.330357 15.7539799 51.1827712 15.6948655 51.0647026 15.6357511 50.9466338 15.5470795 50.8580823 15.4288509 50.799048 15.3106222 50.7400137 15.1628362 50.6809793 15.0150502 50.6514621 14.8081499 50.6809793 14.6603641 50.6514621 14.4534638 50.6514621zM18.5027982 51.0647026C18.79837 51.0647026 19.0643847 51.0942197 19.2712849 51.1827712 19.4781852 51.2713227 19.6555284 51.3598743 19.7737572 51.5074601 19.8919859 51.655046 19.9806575 51.8026318 20.0397717 52.009252 20.0988861 52.2158721 20.1284433 52.4224923 20.1284433 52.6586297L20.1284433 55.0495204C19.9806575 55.0790376 19.7737572 55.1085547 19.4781852 55.167589 19.1826135 55.1971062 18.8574844 55.2266234 18.5027982 55.2266234 18.2663407 55.2266234 18.0594404 55.1971062 17.85254 55.167589 17.6456398 55.1085547 17.4978539 55.0495204 17.3500679 54.9609688 17.202282 54.8724173 17.1136104 54.7248314 17.0249388 54.5772456 16.9362674 54.4296597 16.9067102 54.2230396 16.9067102 53.9869023 16.9067102 53.7507649 16.9362674 53.5736619 17.0249388 53.426076 17.1136104 53.2784902 17.2318391 53.1309043 17.3796251 53.0423529 17.5274111 52.9538014 17.7047542 52.8652498 17.9116544 52.8357326 18.1185547 52.8062155 18.3254551 52.7766983 18.5323553 52.7766983 18.6210268 52.7766983 18.7392556 52.7766983 18.8574844 52.8062155 18.9757131 52.8062155 19.0939419 52.8357326 19.2121707 52.8652498L19.2121707 52.717664C19.2121707 52.5995954 19.2121707 52.5110438 19.1826135 52.4224923 19.1530563 52.3339408 19.1234991 52.2453892 19.0348275 52.1568378 18.9461559 52.0682863 18.8870416 52.0387691 18.79837 51.9797348 18.6801412 51.9502175 18.5619125 51.9207004 18.4141266 51.9207004 18.2072263 51.9207004 18.000326 51.9502175 17.8229828 51.9797348 17.6456398 52.009252 17.4978539 52.0387691 17.3796251 52.0978034L17.2613963 51.3598743C17.3796251 51.330357 17.5569682 51.2713227 17.7638684 51.2418055 18.000326 51.0942197 18.2367835 51.0647026 18.5027982 51.0647026zM18.5914697 54.4886942C18.8870416 54.4886942 19.0939419 54.459177 19.2417279 54.4296597L19.2417279 53.426076C19.1826135 53.3965589 19.1234991 53.3965589 19.0348275 53.3670417 18.9461559 53.3375245 18.8279272 53.3375245 18.7096984 53.3375245 18.6210268 53.3375245 18.5027982 53.3375245 18.4141266 53.3670417 18.2958979 53.3965589 18.2072263 53.3965589 18.1185547 53.4555932 18.0298832 53.4851103 17.9707688 53.5441448 17.9116544 53.6326962 17.85254 53.6917306 17.8229828 53.8097993 17.8229828 53.8983508 17.8229828 54.104971 17.8820972 54.2525568 18.0298832 54.3411083 18.1481119 54.459177 18.3550123 54.4886942 18.5914697 54.4886942zM22.936376 52.009252C22.8477045 51.9797348 22.7590329 51.9502175 22.6112469 51.9207004 22.463461 51.8911832 22.315675 51.8911832 22.138332 51.8911832 22.0496604 51.8911832 21.9314317 51.8911832 21.8132029 51.9207004 21.6949742 51.9502175 21.6063026 51.9502175 21.5767454 51.9797348L21.5767454 55.1380719 20.6900299 55.1380719 20.6900299 51.3598743C20.8673729 51.3008398 21.0742733 51.2418055 21.340288 51.1827712 21.6063026 51.1237369 21.9018745 51.0942197 22.2270036 51.0942197 22.286118 51.0942197 22.3452322 51.0942197 22.4339038 51.0942197 22.5225754 51.0942197 22.5816897 51.1237369 22.6703613 51.1237369 22.7590329 51.1237369 22.8181473 51.153254 22.9068188 51.1827712 22.9954904 51.2122884 23.0546047 51.2122884 23.0841618 51.2418055L22.936376 52.009252zM23.4979625 50.1201532L24.4142353 49.9725673 24.4142353 51.153254 25.8329802 51.153254 25.8329802 51.9207004 24.4142353 51.9207004 24.4142353 53.5441448C24.4142353 53.8688336 24.4733497 54.0754537 24.5620211 54.2230396 24.6506927 54.3706254 24.8280358 54.4296597 25.0644934 54.4296597 25.2418365 54.4296597 25.3896223 54.4001426 25.5078511 54.3706254 25.6260799 54.3411083 25.7443086 54.3115911 25.803423 54.282074L25.951209 55.0200031C25.8329802 55.0790376 25.7147514 55.1085547 25.5374083 55.167589 25.3600651 55.2266234 25.1531649 55.2266234 24.9462646 55.2266234 24.6506927 55.2266234 24.4142353 55.1971062 24.2368922 55.1085547 24.059549 55.0200031 23.8822059 54.9314517 23.7935344 54.7838659 23.6753057 54.63628 23.6161913 54.459177 23.5570769 54.2525568 23.4979625 54.0459366 23.4979625 53.8097993 23.4979625 53.5441448L23.4979625 50.1201532zM31.7444173 53.1604215C31.7444173 53.4851103 31.6853029 53.7507649 31.5966313 54.0164194 31.5079598 54.282074 31.389731 54.4886942 31.212388 54.6657971 31.0350448 54.8429002 30.8577017 54.990486 30.6212442 55.0790376 30.3847868 55.167589 30.1187721 55.2266234 29.8527573 55.2266234 29.5867428 55.2266234 29.320728 55.167589 29.0842706 55.0790376 28.8478131 54.990486 28.6409128 54.8429002 28.4931268 54.6657971 28.3157838 54.4886942 28.1975551 54.2525568 28.1088835 54.0164194 28.0202119 53.7507649 27.9610975 53.4851103 27.9610975 53.1604215 27.9610975 52.8357326 28.0202119 52.5700782 28.1088835 52.3044237 28.1975551 52.0387691 28.3453409 51.8321489 28.4931268 51.655046 28.67047 51.4779429 28.8773703 51.330357 29.0842706 51.2418055 29.320728 51.153254 29.5571856 51.0942197 29.8527573 51.0942197 30.1187721 51.0942197 30.3847868 51.153254 30.6212442 51.2418055 30.8577017 51.330357 31.064602 51.4779429 31.212388 51.655046 31.389731 51.8321489 31.5079598 52.0682863 31.5966313 52.3044237 31.7148601 52.5405609 31.7444173 52.8357326 31.7444173 53.1604215zM30.7985873 53.1604215C30.7985873 52.7766983 30.7099157 52.4520095 30.5325727 52.2158721 30.3552296 51.9797348 30.1187721 51.8616661 29.8232003 51.8616661 29.5276284 51.8616661 29.2911708 51.9797348 29.1138277 52.2158721 28.9364847 52.4520095 28.8478131 52.7471812 28.8478131 53.1604215 28.8478131 53.5736619 28.9364847 53.8688336 29.1138277 54.104971 29.2911708 54.3411083 29.5276284 54.459177 29.8232003 54.459177 30.1187721 54.459177 30.3552296 54.3411083 30.5325727 54.104971 30.7099157 53.8688336 30.7985873 53.5441448 30.7985873 53.1604215zM33.8429774 49.2641552C34.0498778 49.2641552 34.2272209 49.2936724 34.4045639 49.3231896 34.5523499 49.3527067 34.7001358 49.3822239 34.7592502 49.411741L34.5819071 50.1791875C34.4932355 50.1496703 34.4045639 50.1201532 34.2863353 50.0906359 34.1681065 50.0611187 34.0498778 50.0611187 33.931649 50.0611187 33.783863 50.0611187 33.6656343 50.0906359 33.5474057 50.1201532 33.4291769 50.1496703 33.3700625 50.2087046 33.3109481 50.2972561 33.2518337 50.3858076 33.2222766 50.4743592 33.1927194 50.5629107 33.1631622 50.6809793 33.1631622 50.799048 33.1631622 50.9171167L33.1631622 51.1827712 34.6114642 51.1827712 34.6114642 51.9502175 33.1631622 51.9502175 33.1631622 55.1380719 32.2173322 55.1380719 32.2173322 50.8875995C32.2173322 50.3858076 32.3651182 49.9725673 32.6311329 49.6773956 32.8971474 49.411741 33.3109481 49.2641552 33.8429774 49.2641552zM64.4051073 11.2165243C62.7203477 10.9213526 60.9469166 10.7737667 59.0848139 10.7737667 57.1635968 10.7737667 55.419723 11.0984556 53.9123065 11.7183161 52.40489 12.3381767 51.1043738 13.2236917 50.0403152 14.3453441 48.9762564 15.4669966 48.1782124 16.8247863 47.6166259 18.3891964 47.0550394 19.9831235 46.7890247 21.6951192 46.7890247 23.5842182 46.7890247 25.5913856 47.0550394 27.3624158 47.5870687 28.8973086 48.119098 30.4322014 48.8284705 31.7014396 49.7743004 32.7345405 50.7201304 33.7676415 51.8433034 34.5350878 53.1438197 35.0663969 54.4443358 35.597706 55.8926379 35.8633604 57.4887259 35.8633604 58.7005705 35.8633604 59.7646292 35.7157746 60.680902 35.4206029 61.478946 35.1549484 62.1587612 34.918811 62.6907905 34.6531566 62.6907905 37.1621158 61.6267318 39.1692834 58.2867699 39.9957641 56.9271394 40.320453 55.0945938 40.2319014 52.6413474 39.5530066 51.9615322 40.7927278 51.5772888 42.947481 52.6117902 44.2167194 53.528063 45.3088546 55.7744091 45.5154748 57.193154 45.5154748 60.3853301 45.5154748 63.8435209 44.1576849 65.4691659 42.6523093 67.5972834 40.7041762 68.661342 37.6639077 68.661342 33.501987L68.661342 12.1905908C67.5086118 11.8363848 66.0603098 11.5116959 64.4051073 11.2165243zM62.6907905 29.5466863C62.1883184 29.9008923 61.5676176 30.2255811 60.7695735 30.4912357 59.9715295 30.7568902 59.1439283 30.8749589 58.2276555 30.8749589 56.6020103 30.8749589 55.2423798 30.2846155 54.2078783 29.1334458 53.1733769 27.9527592 52.6413474 26.1226947 52.6413474 23.5842182 52.6413474 21.2523618 53.1733769 19.3632629 54.2669926 17.9169216 55.3606086 16.4705803 56.8975822 15.7621683 58.937028 15.7621683 59.8237436 15.7621683 60.5626732 15.7916854 61.1538169 15.8802369 61.7449606 15.9687885 62.2474328 16.05734 62.6316762 16.1458916L62.6316762 29.5466863 62.6907905 29.5466863z"/>
  </g>
</svg>
