<svg xmlns="http://www.w3.org/2000/svg" xmlns:xlink="http://www.w3.org/1999/xlink" width="93" height="48" viewBox="0 0 93 48">
  <defs>
    <path id="logo-ny-a" d="M80.1481365,48 L80.1481365,35.2181144 L92.445702,35.2181144 L92.445702,48 L80.1481365,48 Z M92.3637885,0 L73.1073525,27.8073636 L73.1073525,48 L58.0401423,48 L58.0401423,27.8073636 L46.0807218,10.4156733 L46.0807218,48 L29.8646544,48 L20.2025387,31.4107519 C17.4323487,26.6517196 16.6214949,25.1558179 13.5809617,18.7649599 C13.9187604,23.1162084 13.9863856,24.2039811 14.0540169,28.5552295 L14.0540169,48 L0,48 L0,0 L16.0133532,0 L26.7566599,18.1531995 C29.3917692,23.1162084 30.1349976,24.5438877 32.5673889,29.9150257 C32.1619592,25.2238707 32.0943339,24.2039811 31.9592472,18.832837 L31.9592472,0 L56.3508037,0 L65.674951,15.9773146 L74.8640055,0 L92.3637885,0 Z"/>
  </defs>
  <use fill="#FFF" xlink:href="#logo-ny-a"/>
</svg>
