<?xml version="1.0" encoding="UTF-8"?>
<svg width="52px" height="52px" viewBox="0 0 52 52" version="1.1" xmlns="http://www.w3.org/2000/svg" xmlns:xlink="http://www.w3.org/1999/xlink">
    <!-- Generator: Sketch 51.3 (57544) - http://www.bohemiancoding.com/sketch -->
    <title>smile</title>
    <desc>Created with Sketch.</desc>
    <defs></defs>
    <g id="Page-1" stroke="none" stroke-width="1" fill="none" fill-rule="evenodd">
        <g id="smile" transform="translate(1.000000, 1.000000)" fill-rule="nonzero">
            <rect id="Rectangle-path" stroke="#000000" stroke-width="2" fill="#FFEC2B" x="4" y="4" width="46" height="46"></rect>
            <rect id="Rectangle-path" stroke="#000000" stroke-width="2" fill="#FFFFFF" x="0" y="0" width="46" height="46"></rect>
            <path d="M23,33 C16.95,33 12,28.05 12,22 C12,15.95 16.95,11 23,11 C29.05,11 34,15.95 34,22 C34,28.05 29.05,33 23,33 Z M23,12.8333333 C17.9583333,12.8333333 13.8333333,16.9583333 13.8333333,22 C13.8333333,27.0416667 17.9583333,31.1666667 23,31.1666667 C28.0416667,31.1666667 32.1666667,27.0416667 32.1666667,22 C32.1666667,16.9583333 28.0416667,12.8333333 23,12.8333333 Z" id="Shape" fill="#000000"></path>
            <path d="M18.4166667,22.9166667 C16.8583333,22.9166667 15.6666667,21.725 15.6666667,20.1666667 C15.6666667,18.6083333 16.8583333,17.4166667 18.4166667,17.4166667 C19.975,17.4166667 21.1666667,18.6083333 21.1666667,20.1666667 C21.1666667,21.725 19.975,22.9166667 18.4166667,22.9166667 Z M18.4166667,19.25 C17.8666667,19.25 17.5,19.6166667 17.5,20.1666667 C17.5,20.7166667 17.8666667,21.0833333 18.4166667,21.0833333 C18.9666667,21.0833333 19.3333333,20.7166667 19.3333333,20.1666667 C19.3333333,19.6166667 18.9666667,19.25 18.4166667,19.25 Z M27.5833333,22.9166667 C26.025,22.9166667 24.8333333,21.725 24.8333333,20.1666667 C24.8333333,18.6083333 26.025,17.4166667 27.5833333,17.4166667 C29.1416667,17.4166667 30.3333333,18.6083333 30.3333333,20.1666667 C30.3333333,21.725 29.1416667,22.9166667 27.5833333,22.9166667 Z M27.5833333,19.25 C27.0333333,19.25 26.6666667,19.6166667 26.6666667,20.1666667 C26.6666667,20.7166667 27.0333333,21.0833333 27.5833333,21.0833333 C28.1333333,21.0833333 28.5,20.7166667 28.5,20.1666667 C28.5,19.6166667 28.1333333,19.25 27.5833333,19.25 Z M23,29.3333333 C20.8,29.3333333 18.6916667,28.325 17.3166667,26.675 C17.0416667,26.3083333 17.0416667,25.6666667 17.4083333,25.3916667 C17.775,25.1166667 18.4166667,25.1166667 18.6916667,25.4833333 C19.7916667,26.7666667 21.35,27.5 23,27.5 C24.65,27.5 26.2083333,26.7666667 27.2166667,25.4833333 C27.4916667,25.1166667 28.1333333,25.025 28.5,25.3916667 C28.8666667,25.6666667 28.9583333,26.3083333 28.5916667,26.675 C27.3083333,28.325 25.2,29.3333333 23,29.3333333 Z" id="Shape" fill="#000000"></path>
        </g>
    </g>
</svg>