<svg xmlns="http://www.w3.org/2000/svg" width="144" height="128" viewBox="0 0 144 128">
  <g fill-rule="evenodd">
    <g transform="translate(4 4)">
      <circle cx="2" cy="10" r="2"/>
      <circle cx="10" cy="18" r="2"/>
      <circle cx="18" cy="10" r="2"/>
      <circle cx="10" cy="2" r="2"/>
      <circle cx="2" cy="26" r="2"/>
      <circle cx="18" cy="26" r="2"/>
      <circle cx="26" cy="18" r="2"/>
      <circle cx="34" cy="10" r="2"/>
      <circle cx="26" cy="2" r="2"/>
      <circle cx="34" cy="26" r="2"/>
      <circle cx="42" cy="18" r="2"/>
      <circle cx="42" cy="2" r="2"/>
      <g transform="translate(48)">
        <circle cx="2" cy="10" r="2"/>
        <circle cx="10" cy="18" r="2"/>
        <circle cx="18" cy="10" r="2"/>
        <circle cx="10" cy="2" r="2"/>
        <circle cx="2" cy="26" r="2"/>
        <circle cx="18" cy="26" r="2"/>
        <circle cx="26" cy="18" r="2"/>
        <circle cx="34" cy="10" r="2"/>
        <circle cx="26" cy="2" r="2"/>
        <circle cx="34" cy="26" r="2"/>
        <circle cx="42" cy="18" r="2"/>
        <circle cx="42" cy="2" r="2"/>
      </g>
      <g transform="translate(96)">
        <circle cx="2" cy="10" r="2"/>
        <circle cx="10" cy="18" r="2"/>
        <circle cx="18" cy="10" r="2"/>
        <circle cx="10" cy="2" r="2"/>
        <circle cx="2" cy="26" r="2"/>
        <circle cx="18" cy="26" r="2"/>
        <circle cx="26" cy="18" r="2"/>
        <circle cx="34" cy="10" r="2"/>
        <circle cx="26" cy="2" r="2"/>
        <circle cx="34" cy="26" r="2"/>
        <circle cx="42" cy="18" r="2"/>
        <circle cx="42" cy="2" r="2"/>
      </g>
    </g>
    <g transform="translate(4 36)">
      <circle cx="2" cy="10" r="2"/>
      <circle cx="10" cy="18" r="2"/>
      <circle cx="18" cy="10" r="2"/>
      <circle cx="10" cy="2" r="2"/>
      <circle cx="2" cy="26" r="2"/>
      <circle cx="18" cy="26" r="2"/>
      <circle cx="26" cy="18" r="2"/>
      <circle cx="34" cy="10" r="2"/>
      <circle cx="26" cy="2" r="2"/>
      <circle cx="34" cy="26" r="2"/>
      <circle cx="42" cy="18" r="2"/>
      <circle cx="42" cy="2" r="2"/>
      <g transform="translate(48)">
        <circle cx="2" cy="10" r="2"/>
        <circle cx="10" cy="18" r="2"/>
        <circle cx="18" cy="10" r="2"/>
        <circle cx="10" cy="2" r="2"/>
        <circle cx="2" cy="26" r="2"/>
        <circle cx="18" cy="26" r="2"/>
        <circle cx="26" cy="18" r="2"/>
        <circle cx="34" cy="10" r="2"/>
        <circle cx="26" cy="2" r="2"/>
        <circle cx="34" cy="26" r="2"/>
        <circle cx="42" cy="18" r="2"/>
        <circle cx="42" cy="2" r="2"/>
      </g>
      <g transform="translate(96)">
        <circle cx="2" cy="10" r="2"/>
        <circle cx="10" cy="18" r="2"/>
        <circle cx="18" cy="10" r="2"/>
        <circle cx="10" cy="2" r="2"/>
        <circle cx="2" cy="26" r="2"/>
        <circle cx="18" cy="26" r="2"/>
        <circle cx="26" cy="18" r="2"/>
        <circle cx="34" cy="10" r="2"/>
        <circle cx="26" cy="2" r="2"/>
        <circle cx="34" cy="26" r="2"/>
        <circle cx="42" cy="18" r="2"/>
        <circle cx="42" cy="2" r="2"/>
      </g>
    </g>
    <g transform="translate(4 68)">
      <circle cx="2" cy="10" r="2"/>
      <circle cx="10" cy="18" r="2"/>
      <circle cx="18" cy="10" r="2"/>
      <circle cx="10" cy="2" r="2"/>
      <circle cx="2" cy="26" r="2"/>
      <circle cx="18" cy="26" r="2"/>
      <circle cx="26" cy="18" r="2"/>
      <circle cx="34" cy="10" r="2"/>
      <circle cx="26" cy="2" r="2"/>
      <circle cx="34" cy="26" r="2"/>
      <circle cx="42" cy="18" r="2"/>
      <circle cx="42" cy="2" r="2"/>
      <g transform="translate(48)">
        <circle cx="2" cy="10" r="2"/>
        <circle cx="10" cy="18" r="2"/>
        <circle cx="18" cy="10" r="2"/>
        <circle cx="10" cy="2" r="2"/>
        <circle cx="2" cy="26" r="2"/>
        <circle cx="18" cy="26" r="2"/>
        <circle cx="26" cy="18" r="2"/>
        <circle cx="34" cy="10" r="2"/>
        <circle cx="26" cy="2" r="2"/>
        <circle cx="34" cy="26" r="2"/>
        <circle cx="42" cy="18" r="2"/>
        <circle cx="42" cy="2" r="2"/>
      </g>
      <g transform="translate(96)">
        <circle cx="2" cy="10" r="2"/>
        <circle cx="10" cy="18" r="2"/>
        <circle cx="18" cy="10" r="2"/>
        <circle cx="10" cy="2" r="2"/>
        <circle cx="2" cy="26" r="2"/>
        <circle cx="18" cy="26" r="2"/>
        <circle cx="26" cy="18" r="2"/>
        <circle cx="34" cy="10" r="2"/>
        <circle cx="26" cy="2" r="2"/>
        <circle cx="34" cy="26" r="2"/>
        <circle cx="42" cy="18" r="2"/>
        <circle cx="42" cy="2" r="2"/>
      </g>
    </g>
    <g transform="translate(4 100)">
      <circle cx="2" cy="10" r="2"/>
      <circle cx="10" cy="18" r="2"/>
      <circle cx="18" cy="10" r="2"/>
      <circle cx="10" cy="2" r="2"/>
      <circle cx="2" cy="26" r="2"/>
      <circle cx="18" cy="26" r="2"/>
      <circle cx="26" cy="18" r="2"/>
      <circle cx="34" cy="10" r="2"/>
      <circle cx="26" cy="2" r="2"/>
      <circle cx="34" cy="26" r="2"/>
      <circle cx="42" cy="18" r="2"/>
      <circle cx="42" cy="2" r="2"/>
      <g transform="translate(48)">
        <circle cx="2" cy="10" r="2"/>
        <circle cx="10" cy="18" r="2"/>
        <circle cx="18" cy="10" r="2"/>
        <circle cx="10" cy="2" r="2"/>
        <circle cx="2" cy="26" r="2"/>
        <circle cx="18" cy="26" r="2"/>
        <circle cx="26" cy="18" r="2"/>
        <circle cx="34" cy="10" r="2"/>
        <circle cx="26" cy="2" r="2"/>
        <circle cx="34" cy="26" r="2"/>
        <circle cx="42" cy="18" r="2"/>
        <circle cx="42" cy="2" r="2"/>
      </g>
      <g transform="translate(96)">
        <circle cx="2" cy="10" r="2"/>
        <circle cx="10" cy="18" r="2"/>
        <circle cx="18" cy="10" r="2"/>
        <circle cx="10" cy="2" r="2"/>
        <circle cx="2" cy="26" r="2"/>
        <circle cx="18" cy="26" r="2"/>
        <circle cx="26" cy="18" r="2"/>
        <circle cx="34" cy="10" r="2"/>
        <circle cx="26" cy="2" r="2"/>
        <circle cx="34" cy="26" r="2"/>
        <circle cx="42" cy="18" r="2"/>
        <circle cx="42" cy="2" r="2"/>
      </g>
    </g>
  </g>
</svg>
